<svg width="168" height="40" viewBox="0 0 168 40" fill="none" xmlns="http://www.w3.org/2000/svg">
<path fill-rule="evenodd" clip-rule="evenodd" d="M31.1206 35.5304C20.5275 37.6427 8.68587 31.9832 4.6581 22.8163C0.630328 13.6892 5.98727 4.52232 16.5803 2.3701C27.1734 0.217867 39.015 5.91729 43.0428 15.0443C47.0706 24.2112 41.7136 33.3781 31.1206 35.5304ZM38.4108 16.8379H41.7942C41.1497 14.4863 39.8608 12.3341 38.2497 10.5007L35.5914 11.6964C34.1817 10.142 32.4095 8.90649 30.4761 7.9898L31.8053 5.71801C29.4692 4.60204 26.9317 3.84477 24.3136 3.56578V6.31585C22.2595 6.11657 20.165 6.27599 18.1914 6.87383L16.2178 4.28319C13.64 5.04045 11.5053 6.3557 9.85393 7.94995L13.197 9.82318C11.7873 11.2979 10.9414 13.1312 10.7803 15.124L6.4706 14.9646C6.14838 17.8741 6.95393 20.7438 8.44421 23.2547L12.7136 21.5807C14.1636 23.733 16.2984 25.4468 18.7553 26.6425L16.2984 30.3889C19.4803 32.023 23.1053 32.9397 26.7303 32.9397L26.4484 28.4758C29.0261 28.4758 31.6845 27.9178 33.94 26.6425L36.5983 30.1896C38.9345 28.6353 40.6261 26.5627 41.5122 24.1714L37.8872 22.338C38.6525 20.664 38.8539 18.7908 38.4108 16.8379Z" fill="#E6E7E8"/>
<path d="M23.7101 0.851462C9.89488 -0.902206 -3.47733 9.54009 3.20877 23.968C7.84071 34.0516 20.7699 40.1894 32.0879 37.6785C48.2796 34.0914 49.7296 17.312 38.4921 7.46757C51.5018 17.3917 49.4879 35.5661 32.3296 39.3126C20.3671 41.9431 6.71294 35.4864 1.83933 24.8847C-5.169 9.6198 9.08932 -1.50005 23.7101 0.851462Z" fill="#3CA7F3"/>
<path d="M35.4719 23.1328C31.9677 23.8104 29.0274 22.4951 26.7719 18.7885C27.8594 19.8247 29.5108 20.4624 31.2427 20.5023C33.6594 20.5422 35.5121 19.3066 35.9149 17.5928C34.9214 17.8319 33.8876 17.9515 32.8135 17.9515C31.1219 17.9515 29.5108 17.6327 27.9802 17.0747C27.9399 17.2341 23.9121 20.7016 23.1066 21.1798C23.5496 20.7016 25.3621 16.2377 25.6038 15.8391C23.0663 14.2449 20.6899 11.7738 19.5622 8.98389C18.7566 9.62158 18.2733 10.5781 18.4344 11.6144C18.5552 12.4514 19.0788 13.2485 19.8038 13.8862H19.3205C16.2191 13.9659 14.0038 16.0384 14.326 18.4696C14.6885 20.9009 17.4677 22.8139 20.5691 22.6944C22.8649 22.6147 25.1608 21.0603 25.8858 19.4262C27.1344 23.0531 25.4427 25.3647 21.4552 26.3611L21.5358 27.2778L35.9955 23.9299L35.4719 23.1328Z" fill="#971115"/>
<path fill-rule="evenodd" clip-rule="evenodd" d="M31.6053 35.0468C21.0123 37.199 9.13034 31.5395 5.14285 22.3726C1.11507 13.2057 6.43174 4.07862 17.0248 1.92639C27.6178 -0.225835 39.4595 5.43373 43.4873 14.6006C47.515 23.7277 42.1984 32.8946 31.6053 35.0468ZM38.8553 16.3941H42.2386C41.5942 14.0426 40.3456 11.8904 38.6942 10.057L36.0359 11.2129C34.6664 9.69833 32.8942 8.42293 30.9206 7.50624L32.2498 5.2743C29.9539 4.15833 27.3762 3.40107 24.7581 3.12208V5.83229C22.7039 5.63301 20.6095 5.83229 18.6359 6.43013L16.7026 3.79963C14.0845 4.59675 11.9498 5.87215 10.3387 7.50624L13.6817 9.33962C12.2317 10.8542 11.3859 12.6875 11.2248 14.6405L6.91507 14.5209C6.59285 17.4304 7.3984 20.3 8.88868 22.811L13.1581 21.137C14.6081 23.2494 16.7428 25.0031 19.2401 26.1589L16.7428 29.9452C19.9248 31.5793 23.5498 32.496 27.1748 32.496L26.8928 27.9923C29.4706 28.0321 32.1692 27.4741 34.3845 26.1589L37.0428 29.7061C39.3789 28.1915 41.0706 26.0792 41.9567 23.7277L38.372 21.8544C39.097 20.2203 39.2984 18.3072 38.8553 16.3941Z" fill="url(#paint0_linear_938_4655)"/>
<path d="M4.57845 17.354C5.24975 17.5134 5.90762 17.6728 6.55206 17.8323C6.3641 16.7163 6.33725 15.6003 6.47151 14.4844L6.51178 14.0459L10.8215 14.2054C11.0229 12.4517 11.7479 10.8574 12.9562 9.46249L9.57289 7.62911L9.97567 7.19069C11.7479 5.43702 13.9632 4.16163 16.5409 3.36451L16.8632 3.28479L18.7965 5.9153C20.2062 5.51674 21.6562 5.31746 23.1868 5.31746C23.5627 5.31746 23.9386 5.33074 24.3145 5.35731V2.60724L24.8382 2.68695C27.4159 2.96594 30.0743 3.72321 32.4507 4.87904L32.934 5.07832L31.5645 7.31026C33.3368 8.22695 34.9076 9.34292 36.1562 10.698L38.8145 9.50234L39.0562 9.78134C40.7881 11.7343 42.0368 13.9662 42.6812 16.2779L42.8423 16.8359H39.4187C39.7006 18.5098 39.5395 20.1439 38.9354 21.6585L40.4256 22.4157C41.6071 22.522 42.7886 22.615 43.9701 22.6947C44.0506 22.6947 44.1312 22.6947 44.2118 22.6947C44.6145 20.1439 44.252 17.4337 43.084 14.8032C39.7409 7.23055 30.9201 1.92969 21.6159 1.92969C20.0854 1.92969 18.5951 2.08911 17.1048 2.3681C11.9493 3.40436 7.80067 6.274 5.70623 10.2596C4.57845 12.4118 4.09512 14.8431 4.29651 17.2743C4.40391 17.3009 4.4979 17.3274 4.57845 17.354Z" fill="url(#paint1_linear_938_4655)"/>
<path d="M24.1535 0.41445C10.3785 -1.33922 -2.9937 9.10308 3.65213 23.531C8.32435 33.5747 21.2535 39.7125 32.5716 37.2415C48.7229 33.6544 50.1729 16.8352 38.9757 7.03056C51.9452 16.9547 49.9313 35.0892 32.7729 38.8357C20.8105 41.5061 7.1563 35.0494 2.28269 24.4477C-4.72564 9.18279 9.53269 -1.93706 24.1535 0.41445Z" fill="url(#paint2_linear_938_4655)"/>
<path fill-rule="evenodd" clip-rule="evenodd" d="M36.4782 23.3309L21.9782 26.6788L21.8977 25.7223C25.9254 24.7657 27.6171 22.4142 26.3685 18.8272C25.6032 20.4613 23.3074 22.0157 21.0115 22.0954C17.9102 22.1751 15.131 20.3019 14.8088 17.8706C14.4463 15.4394 16.7018 13.3669 19.7629 13.2473C19.9241 13.2473 20.0852 13.2473 20.2463 13.2473C19.5213 12.6495 19.0379 11.8524 18.9171 11.0154C18.5949 8.98273 20.5685 7.34863 23.2671 7.34863C25.9657 7.34863 28.3824 8.98273 28.6643 11.0154C28.718 11.3342 28.718 11.6398 28.6643 11.9321C29.2282 11.7328 29.8727 11.6531 30.5171 11.6531C33.4574 11.6929 36.1157 13.5662 36.4379 15.838C36.7602 18.1098 34.6254 19.9432 31.6852 19.9033C29.9532 19.8634 28.3421 19.1859 27.2143 18.1895C29.4699 21.8562 32.4102 23.2114 35.9143 22.4939L36.4782 23.3309ZM26.0463 18.0699L25.8852 17.0337C25.724 18.2692 24.7574 19.5047 23.9518 20.3417C24.7977 19.8236 25.5629 18.9069 26.0463 18.0699ZM27.6977 13.0879C31.3227 12.0517 34.9477 13.6459 35.431 16.1568C35.431 13.1676 31.4032 11.7328 28.1407 12.5299C28.0602 9.62043 24.9185 7.26892 21.4143 8.70374C25.3213 7.62763 27.8185 10.4574 27.6977 13.0879Z" fill="#FFE500"/>
<path d="M158.383 15.8115C158.383 16.1844 158.36 16.5728 158.313 16.9768H149.294C149.356 17.7847 149.612 18.4062 150.063 18.8412C150.529 19.2607 151.096 19.4705 151.764 19.4705C152.759 19.4705 153.45 19.051 153.839 18.212H158.08C157.863 19.0665 157.466 19.8356 156.892 20.5192C156.332 21.2028 155.625 21.7389 154.771 22.1273C153.916 22.5157 152.961 22.7099 151.904 22.7099C150.63 22.7099 149.496 22.438 148.502 21.8942C147.507 21.3504 146.73 20.5736 146.171 19.5637C145.612 18.5538 145.332 17.3729 145.332 16.0212C145.332 14.6695 145.604 13.4887 146.148 12.4788C146.707 11.4689 147.484 10.692 148.478 10.1482C149.473 9.60442 150.615 9.33252 151.904 9.33252C153.163 9.33252 154.281 9.59665 155.26 10.1249C156.239 10.6532 157 11.4067 157.544 12.3856C158.103 13.3644 158.383 14.5064 158.383 15.8115ZM154.305 14.7627C154.305 14.0791 154.072 13.5353 153.606 13.1313C153.139 12.7274 152.557 12.5254 151.858 12.5254C151.19 12.5254 150.622 12.7196 150.156 13.108C149.706 13.4965 149.426 14.048 149.317 14.7627H154.305Z" fill="white"/>
<path d="M138.768 9.37891C140.29 9.37891 141.502 9.87609 142.403 10.8705C143.32 11.8493 143.778 13.201 143.778 14.9256V22.5233H139.816V15.4617C139.816 14.5916 139.591 13.9157 139.141 13.4341C138.69 12.9524 138.084 12.7116 137.323 12.7116C136.561 12.7116 135.955 12.9524 135.505 13.4341C135.054 13.9157 134.829 14.5916 134.829 15.4617V22.5233H130.844V9.51874H133.104C134.057 9.51874 134.829 10.2909 134.829 11.2434V11.2434C135.233 10.6685 135.777 10.2179 136.46 9.89163C137.144 9.54981 137.913 9.37891 138.768 9.37891Z" fill="white"/>
<path d="M128.917 9.51904V22.5236H124.932V9.51904H128.917Z" fill="white"/>
<path d="M118.064 9.37913C119.556 9.37913 120.752 9.87631 121.653 10.8707C122.554 11.8495 123.005 13.2012 123.005 14.9259V22.5235H119.043V15.4619C119.043 14.5918 118.818 13.9159 118.367 13.4343C117.917 12.9527 117.311 12.7118 116.549 12.7118C115.788 12.7118 115.182 12.9527 114.731 13.4343C114.281 13.9159 114.056 14.5918 114.056 15.4619V22.5235H110.07V5.27734V5.27734C112.271 5.27734 114.056 7.0616 114.056 9.2626V11.2669C114.46 10.692 115.011 10.2337 115.71 9.89185C116.409 9.55004 117.194 9.37913 118.064 9.37913Z" fill="white"/>
<path d="M95.7451 16.0212C95.7451 14.6695 96.017 13.4887 96.5608 12.4788C97.1201 11.4689 97.8892 10.692 98.8681 10.1482C99.8624 9.60442 100.997 9.33252 102.271 9.33252C103.902 9.33252 105.262 9.75979 106.349 10.6143C107.452 11.4689 108.175 12.673 108.517 14.2267H104.275C103.918 13.2323 103.226 12.7351 102.201 12.7351C101.471 12.7351 100.888 13.0226 100.453 13.5974C100.018 14.1568 99.8003 14.9647 99.8003 16.0212C99.8003 17.0777 100.018 17.8934 100.453 18.4683C100.888 19.0276 101.471 19.3073 102.201 19.3073C103.226 19.3073 103.918 18.8101 104.275 17.8158H108.517C108.175 19.3384 107.452 20.5347 106.349 21.4048C105.246 22.2749 103.887 22.7099 102.271 22.7099C100.997 22.7099 99.8624 22.438 98.8681 21.8942C97.8892 21.3504 97.1201 20.5736 96.5608 19.5637C96.017 18.5538 95.7451 17.3729 95.7451 16.0212Z" fill="white"/>
<path d="M80.4648 15.998C80.4648 14.6618 80.7134 13.4888 81.2106 12.4789C81.7233 11.4689 82.4147 10.6921 83.2848 10.1483C84.1549 9.6045 85.126 9.3326 86.198 9.3326C87.1147 9.3326 87.9149 9.51904 88.5985 9.89193C89.2977 10.2648 89.8337 10.7542 90.2066 11.3602V8.74219H94.1918V22.5236H92.0477C91.0309 22.5236 90.2066 21.6993 90.2066 20.6824V20.6824C89.8182 21.2884 89.2744 21.7778 88.5752 22.1507C87.8916 22.5236 87.0914 22.71 86.1747 22.71C85.1182 22.71 84.1549 22.4381 83.2848 21.8943C82.4147 21.335 81.7233 20.5504 81.2106 19.5404C80.7134 18.515 80.4648 17.3342 80.4648 15.998ZM90.2066 16.0213C90.2066 15.0269 89.9269 14.2423 89.3676 13.6674C88.8238 13.0926 88.1557 12.8051 87.3633 12.8051C86.5709 12.8051 85.895 13.0926 85.3357 13.6674C84.7919 14.2268 84.52 15.0036 84.52 15.998C84.52 16.9924 84.7919 17.7848 85.3357 18.3752C85.895 18.95 86.5709 19.2375 87.3633 19.2375C88.1557 19.2375 88.8238 18.95 89.3676 18.3752C89.9269 17.8003 90.2066 17.0157 90.2066 16.0213Z" fill="white"/>
<path d="M78.9108 6.16309V22.5236H74.9255V12.712L71.2665 22.5236H68.0504L64.3681 12.6887V22.5236H60.3828V6.16309H65.0905L69.6817 17.4896L74.2263 6.16309H78.9108Z" fill="white"/>
<path d="M99.1602 32.0709C99.1602 31.1267 99.3512 30.3005 99.7334 29.5924C100.116 28.873 100.638 28.3222 101.301 27.9401C101.976 27.5466 102.735 27.3499 103.578 27.3499C104.387 27.3499 105.118 27.5466 105.77 27.9401C106.421 28.3335 106.899 28.8449 107.203 29.4744V24.2139H108.383V36.6907H107.203V34.6337C106.922 35.2744 106.461 35.8027 105.82 36.2186C105.179 36.6233 104.426 36.8256 103.561 36.8256C102.718 36.8256 101.959 36.6289 101.285 36.2355C100.621 35.8421 100.099 35.2857 99.7166 34.5663C99.3456 33.8469 99.1602 33.0151 99.1602 32.0709ZM107.203 32.0878C107.203 31.3459 107.051 30.694 106.747 30.1319C106.444 29.5699 106.028 29.1372 105.5 28.8337C104.983 28.5302 104.409 28.3784 103.78 28.3784C103.128 28.3784 102.544 28.5246 102.026 28.8168C101.509 29.1091 101.099 29.5362 100.796 30.0982C100.503 30.649 100.357 31.3066 100.357 32.0709C100.357 32.824 100.503 33.4872 100.796 34.0605C101.099 34.6225 101.509 35.0552 102.026 35.3587C102.544 35.651 103.128 35.7971 103.78 35.7971C104.409 35.7971 104.983 35.6453 105.5 35.3419C106.028 35.0384 106.444 34.6056 106.747 34.0436C107.051 33.4816 107.203 32.8296 107.203 32.0878Z" fill="url(#paint3_linear_938_4655)"/>
<path d="M97.0269 24.2139V36.6907H95.8467V24.2139H97.0269Z" fill="url(#paint4_linear_938_4655)"/>
<path d="M90.9185 29.1205C91.1771 28.5472 91.5705 28.1032 92.0988 27.7885C92.6383 27.4738 93.2959 27.3164 94.0715 27.3164V28.5472H93.7511C92.8968 28.5472 92.2112 28.7777 91.6941 29.2385C91.1771 29.6994 90.9185 30.4693 90.9185 31.5484V36.6909H89.7383V27.485H90.9185V29.1205Z" fill="url(#paint5_linear_938_4655)"/>
<path d="M82.9501 36.8253C82.0846 36.8253 81.3034 36.6342 80.6065 36.252C79.9208 35.8586 79.3756 35.3078 78.971 34.5997C78.5776 33.8803 78.3809 33.0429 78.3809 32.0874C78.3809 31.132 78.5832 30.3002 78.9878 29.5921C79.3925 28.8727 79.9433 28.3219 80.6402 27.9397C81.3371 27.5463 82.1183 27.3496 82.9838 27.3496C83.8493 27.3496 84.6305 27.5463 85.3274 27.9397C86.0356 28.3219 86.5863 28.8727 86.9798 29.5921C87.3844 30.3002 87.5867 31.132 87.5867 32.0874C87.5867 33.0316 87.3844 33.8634 86.9798 34.5828C86.5751 35.3022 86.0187 35.8586 85.3106 36.252C84.6024 36.6342 83.8156 36.8253 82.9501 36.8253ZM82.9501 35.7968C83.5571 35.7968 84.1191 35.6619 84.6361 35.3921C85.1532 35.1111 85.5691 34.6952 85.8838 34.1444C86.2098 33.5824 86.3728 32.8967 86.3728 32.0874C86.3728 31.2781 86.2154 30.5981 85.9007 30.0473C85.586 29.4853 85.1701 29.0694 84.653 28.7996C84.1359 28.5186 83.5739 28.3781 82.9669 28.3781C82.36 28.3781 81.7979 28.5186 81.2809 28.7996C80.7638 29.0694 80.3479 29.4853 80.0332 30.0473C79.7297 30.5981 79.578 31.2781 79.578 32.0874C79.578 32.8967 79.7297 33.5824 80.0332 34.1444C80.3479 34.6952 80.7582 35.1111 81.264 35.3921C81.7811 35.6619 82.3431 35.7968 82.9501 35.7968Z" fill="url(#paint6_linear_938_4655)"/>
<path d="M78.6387 22.6196L73.7765 36.6909H72.4614L69.4939 26.642L66.459 36.6909L65.1776 36.7078L60.3828 22.6196H61.6474L65.8689 35.2409L68.8869 24.9053H70.202L73.1358 35.2409L77.3741 22.6196H78.6387Z" fill="url(#paint7_linear_938_4655)"/>
<circle cx="126.883" cy="5.67432" r="2.5" fill="url(#paint8_linear_938_4655)"/>
<defs>
<linearGradient id="paint0_linear_938_4655" x1="39.9178" y1="3.00609" x2="38.7408" y2="35.6001" gradientUnits="userSpaceOnUse">
<stop stop-color="#EC1C24"/>
<stop offset="1" stop-color="#8A0F12"/>
</linearGradient>
<linearGradient id="paint1_linear_938_4655" x1="9.64459" y1="26.1777" x2="26.4965" y2="-19.3781" gradientUnits="userSpaceOnUse">
<stop stop-color="#ED3024"/>
<stop offset="1" stop-color="#8A0F12"/>
</linearGradient>
<linearGradient id="paint2_linear_938_4655" x1="29.6045" y1="5.67995" x2="17.15" y2="39.6431" gradientUnits="userSpaceOnUse">
<stop offset="0.193825" stop-color="#22BDFF"/>
<stop offset="1" stop-color="#FF019A"/>
</linearGradient>
<linearGradient id="paint3_linear_938_4655" x1="106.62" y1="18.2476" x2="111.145" y2="31.561" gradientUnits="userSpaceOnUse">
<stop stop-color="#FFE600"/>
<stop offset="1" stop-color="#FF3D00"/>
</linearGradient>
<linearGradient id="paint4_linear_938_4655" x1="96.8013" y1="18.3114" x2="101.685" y2="20.1701" gradientUnits="userSpaceOnUse">
<stop stop-color="#FFE600"/>
<stop offset="1" stop-color="#FF3D00"/>
</linearGradient>
<linearGradient id="paint5_linear_938_4655" x1="93.2432" y1="22.8816" x2="97.848" y2="31.4447" gradientUnits="userSpaceOnUse">
<stop stop-color="#FFE600"/>
<stop offset="1" stop-color="#FF3D00"/>
</linearGradient>
<linearGradient id="paint6_linear_938_4655" x1="85.827" y1="22.8669" x2="88.5066" y2="33.3399" gradientUnits="userSpaceOnUse">
<stop stop-color="#FFE600"/>
<stop offset="1" stop-color="#FF3D00"/>
</linearGradient>
<linearGradient id="paint7_linear_938_4655" x1="73.9165" y1="15.9549" x2="77.243" y2="31.8489" gradientUnits="userSpaceOnUse">
<stop stop-color="#FFE600"/>
<stop offset="1" stop-color="#FF3D00"/>
</linearGradient>
<linearGradient id="paint8_linear_938_4655" x1="128.427" y1="0.808956" x2="129.805" y2="6.35433" gradientUnits="userSpaceOnUse">
<stop stop-color="#FFE600"/>
<stop offset="1" stop-color="#FF3D00"/>
</linearGradient>
</defs>
</svg>
